<?xml version="1.0" encoding="UTF-8" standalone="no"?>
<svg
   viewBox="20 20 160 160"
   version="1.1"
   xmlns="http://www.w3.org/2000/svg">
  <path
     d="m 110.5175,100 67.301,-67.302 a 7.385,7.385 0 0 0 2.181,-5.26 7.385,7.385 0 0 0 -2.177,-5.257 c -1.404,-1.406 -3.272,-2.181 -5.26,-2.181 -1.988,0 -3.856,0.775 -5.259,2.179 l -67.304001,67.303 -67.302,-67.301 c -1.404,-1.406 -3.272,-2.181 -5.26,-2.181 -1.988,0 -3.856,0.775 -5.258,2.178 a 7.387,7.387 0 0 0 -2.18,5.26 c 0,1.988 0.775,3.856 2.179,5.259 l 67.303,67.303 -67.302,67.303 a 7.385,7.385 0 0 0 -2.18,5.259 c 0,1.988 0.774,3.856 2.179,5.259 1.404,1.404 3.272,2.178 5.259,2.178 1.987,0 3.854,-0.774 5.259,-2.178 l 67.303,-67.302 67.304001,67.303 c 1.404,1.404 3.272,2.178 5.259,2.178 1.987,0 3.854,-0.774 5.258,-2.177 a 7.385,7.385 0 0 0 2.18,-5.26 7.386,7.386 0 0 0 -2.179,-5.259 z"
     fill="#FFFFFF"/>
</svg>
