<?xml version="1.0" encoding="UTF-8" standalone="no"?>
<!-- Created with Inkscape (http://www.inkscape.org/) -->

<svg
   version="1.1"
   id="svg132"
   width="900.00006mm"
   height="182mm"
   viewBox="0 0 3401.5749 687.87405"
   xmlns="http://www.w3.org/2000/svg"
   xmlns:svg="http://www.w3.org/2000/svg">
  <defs
     id="defs136" />
  <g
     id="g438"
     style="font-variation-settings:normal;display:inline;opacity:1;vector-effect:none;fill:#ffffff;fill-opacity:1;stroke:none;stroke-width:1.33333;stroke-linecap:butt;stroke-linejoin:miter;stroke-miterlimit:4;stroke-dasharray:none;stroke-dashoffset:0;stroke-opacity:1;-inkscape-stroke:none;stop-color:#000000;stop-opacity:1"
     transform="matrix(0.99598355,0,0,0.99598355,340.15749,-1.7133668e-7)">
    <path
       d="M -4.5976999e-6,690.64798 H 115.62266 l 89.928,-217.23599 h 307.04132 l -23.124,-69.68 H 228.67599 L 357.14532,78.901329 h 2.56933 L 415.60799,230.56399 527.51865,230.07332 429.08665,-2.7337999e-6 h -134.892 z"
       style="font-variation-settings:normal;vector-effect:none;fill:#ffffff;fill-opacity:1;fill-rule:nonzero;stroke:none;stroke-width:1.33333;stroke-linecap:butt;stroke-linejoin:miter;stroke-miterlimit:4;stroke-dasharray:none;stroke-dashoffset:0;stroke-opacity:1;-inkscape-stroke:none;stop-color:#000000;stop-opacity:1"
       id="path146" />
    <text
       xml:space="preserve"
       style="font-variant:normal;font-weight:500;font-stretch:normal;font-size:359.415px;font-family:'Montserrat Medium';-inkscape-font-specification:Montserrat-Medium;font-variation-settings:normal;writing-mode:lr-tb;display:none;vector-effect:none;fill:#ffffff;fill-opacity:1;fill-rule:nonzero;stroke:none;stroke-width:1.33333;stroke-linecap:butt;stroke-linejoin:miter;stroke-miterlimit:4;stroke-dasharray:none;stroke-dashoffset:0;stroke-opacity:1;-inkscape-stroke:none;stop-color:#000000;stop-opacity:1"
       id="text152"
       x="689.53198"
       y="255.99998"><tspan
         x="689.53198 955.1394 1206.3702 1466.5864 1566.1443 1846.1284 2075.0757 2274.1912 2503.1384"
         y="255.99998"
         id="tspan148"
         style="font-variation-settings:normal;vector-effect:none;fill:#ffffff;fill-opacity:1;stroke:none;stroke-width:1.33333;stroke-linecap:butt;stroke-linejoin:miter;stroke-miterlimit:4;stroke-dasharray:none;stroke-dashoffset:0;stroke-opacity:1;-inkscape-stroke:none;stop-color:#000000;stop-opacity:1">GABINETE </tspan><tspan
         x="689.53198 974.54779 1264.5955 1349.4174 1600.6482 1932.0284 2222.0759"
         y="687.29761"
         id="tspan150"
         style="font-variation-settings:normal;vector-effect:none;fill:#ffffff;fill-opacity:1;stroke:none;stroke-width:1.33333;stroke-linecap:butt;stroke-linejoin:miter;stroke-miterlimit:4;stroke-dasharray:none;stroke-dashoffset:0;stroke-opacity:1;-inkscape-stroke:none;stop-color:#000000;stop-opacity:1">DO AMOM</tspan></text>
    <g
       aria-label="GABINETE DO AMOM"
       id="text152-3"
       style="font-weight:500;font-size:359.415px;font-family:'Montserrat Medium';-inkscape-font-specification:Montserrat-Medium;display:inline;vector-effect:none;stop-color:#000000">
      <path
         d="m 840.8457,258.8753 q -29.11261,0 -53.55284,-9.34479 -24.44022,-9.7042 -42.41097,-26.95612 -17.97075,-17.61134 -28.03437,-40.97331 -10.06362,-23.36198 -10.06362,-51.39635 0,-28.03437 10.06362,-51.396344 10.06362,-23.361976 28.03437,-40.613896 18.33017,-17.611336 42.77039,-26.956126 24.44022,-9.7042053 53.91225,-9.7042053 29.83145,0 54.63108,9.7042053 24.79964,9.704205 42.05156,29.112616 l -22.28373,22.28373 q -15.45485,-15.09543 -33.78501,-21.924315 -17.97075,-7.188301 -39.17624,-7.188301 -21.5649,0 -40.25448,7.188301 -18.33017,7.1883 -31.98794,20.12724 -13.29835,12.93894 -20.84607,30.909691 -7.1883,17.611334 -7.1883,38.457404 0,20.48666 7.1883,38.45741 7.54772,17.61133 20.84607,30.90969 13.65777,12.93894 31.98794,20.12724 18.33017,7.1883 39.89507,7.1883 20.12724,0 38.4574,-6.11006 18.68958,-6.46947 34.50384,-21.20548 l 20.48666,27.31554 q -18.68958,15.81426 -43.84863,24.0808 -24.79964,7.90713 -51.39635,7.90713 z m 60.74114,-36.66033 v -93.4479 h 34.50384 v 98.1203 z"
         style="vector-effect:none;stop-color:#000000;stop-opacity:1"
         id="path712" />
      <path
         d="M 954.77999,255.99998 1068.7145,4.4094788 h 35.5821 L 1218.5906,255.99998 H 1180.852 L 1079.1376,24.536719 h 14.3766 L 991.79974,255.99998 Z m 48.52101,-62.89762 9.7042,-28.7532 h 141.6095 l 10.4231,28.7532 z"
         style="vector-effect:none;stop-color:#000000;stop-opacity:1"
         id="path714" />
      <path
         d="M 1244.1088,255.99998 V 4.4094788 h 112.8563 q 43.4892,0 66.8512,17.6113352 23.362,17.251921 23.362,47.442781 0,20.486656 -9.3448,34.503845 -8.9854,14.01718 -24.4402,21.5649 -15.4549,7.54771 -33.4256,7.54771 l 6.4695,-10.78245 q 21.5649,0 38.0979,7.54772 16.5331,7.54771 26.2373,22.28373 9.7043,14.3766 9.7043,35.9415 0,32.34735 -24.4403,50.3181 -24.0808,17.61133 -71.883,17.61133 z m 35.9415,-29.11261 h 82.6655 q 29.8314,0 45.6457,-10.06362 15.8142,-10.06362 15.8142,-31.62852 0,-21.92432 -15.8142,-31.98794 -15.8143,-10.06362 -45.6457,-10.06362 h -85.9002 v -29.11261 h 76.9148 q 27.3155,0 42.411,-10.06362 15.0954,-10.063624 15.0954,-30.190865 0,-20.12724 -15.0954,-30.19086 -15.0955,-10.063621 -42.411,-10.063621 h -73.6801 z"
         style="vector-effect:none;stop-color:#000000;stop-opacity:1"
         id="path716" />
      <path
         d="M 1504.325,255.99998 V 4.4094788 h 35.9415 V 255.99998 Z"
         style="vector-effect:none;stop-color:#000000;stop-opacity:1"
         id="path718" />
      <path
         d="M 1603.8829,255.99998 V 4.4094788 h 29.472 L 1799.764,211.07311 h -15.4548 V 4.4094788 h 35.9415 V 255.99998 h -29.472 L 1624.3695,49.336355 h 15.4549 V 255.99998 Z"
         style="vector-effect:none;stop-color:#000000;stop-opacity:1"
         id="path720" />
      <path
         d="m 1916.5738,112.95281 h 129.3894 v 30.55028 h -129.3894 z m 3.2347,111.77807 h 146.6413 v 31.2691 H 1883.867 V 4.4094788 h 177.551 V 35.678585 h -141.6095 z"
         style="vector-effect:none;stop-color:#000000;stop-opacity:1"
         id="path722" />
      <path
         d="M 2162.7729,255.99998 V 35.678585 h -86.2596 V 4.4094788 h 208.1013 V 35.678585 H 2198.355 V 255.99998 Z"
         style="vector-effect:none;stop-color:#000000;stop-opacity:1"
         id="path724" />
      <path
         d="m 2344.6365,112.95281 h 129.3894 v 30.55028 h -129.3894 z m 3.2347,111.77807 h 146.6414 v 31.2691 H 2311.9297 V 4.4094788 h 177.5511 V 35.678585 h -141.6096 z"
         style="vector-effect:none;stop-color:#000000;stop-opacity:1"
         id="path726" />
      <path
         d="m 727.27056,687.29759 v -251.5905 h 106.02743 q 40.25448,0 70.80475,15.81426 30.90969,15.81426 47.8022,44.20804 17.25192,28.39379 17.25192,65.77295 0,37.37916 -17.25192,65.77295 -16.89251,28.39378 -47.8022,44.20804 -30.55027,15.81426 -70.80475,15.81426 z m 35.9415,-31.2691 h 67.92944 q 31.2691,0 53.91225,-11.8607 23.00256,-11.86069 35.58208,-33.06618 12.57953,-21.5649 12.57953,-49.59927 0,-28.39379 -12.57953,-49.59927 -12.57952,-21.20549 -35.58208,-33.06618 -22.64315,-11.8607 -53.91225,-11.8607 h -67.92944 z"
         style="vector-effect:none;stop-color:#000000;stop-opacity:1"
         id="path728" />
      <path
         d="m 1125.8615,690.17291 q -28.7532,0 -53.5528,-9.7042 -24.4402,-9.70421 -42.411,-26.95613 -17.9707,-17.61133 -28.0344,-40.97331 -10.06359,-23.36198 -10.06359,-51.03693 0,-27.67496 10.06359,-51.03693 10.0637,-23.36198 28.0344,-40.6139 17.9708,-17.61133 42.411,-27.31554 24.4402,-9.7042 53.5528,-9.7042 28.7532,0 52.834,9.7042 24.4402,9.34479 42.411,26.95613 18.3302,17.25192 28.0344,40.61389 10.0636,23.36198 10.0636,51.39635 0,28.03437 -10.0636,51.39635 -9.7042,23.36197 -28.0344,40.97331 -17.9708,17.25192 -42.411,26.95612 -24.0808,9.34479 -52.834,9.34479 z m 0,-31.98793 q 20.8461,0 38.4574,-7.1883 17.9708,-7.1883 30.9097,-20.12724 13.2984,-13.29836 20.4867,-30.90969 7.5477,-17.61134 7.5477,-38.45741 0,-20.84607 -7.5477,-38.45741 -7.1883,-17.61133 -20.4867,-30.55027 -12.9389,-13.29836 -30.9097,-20.48666 -17.6113,-7.1883 -38.4574,-7.1883 -21.2055,0 -39.1762,7.1883 -17.6114,7.1883 -30.9097,20.48666 -13.2984,12.93894 -20.8461,30.55027 -7.1883,17.61134 -7.1883,38.45741 0,20.84607 7.1883,38.45741 7.5477,17.61133 20.8461,30.90969 13.2983,12.93894 30.9097,20.12724 17.9707,7.1883 39.1762,7.1883 z"
         style="vector-effect:none;stop-color:#000000;stop-opacity:1"
         id="path730" />
      <path
         d="m 1349.0579,687.29759 113.9346,-251.5905 h 35.5821 l 114.294,251.5905 H 1575.13 L 1473.4155,455.83433 h 14.3766 l -101.7144,231.46326 z m 48.5211,-62.89762 9.7042,-28.75321 h 141.6095 l 10.423,28.75321 z"
         style="vector-effect:none;stop-color:#000000;stop-opacity:1"
         id="path732" />
      <path
         d="m 1638.3868,687.29759 v -251.5905 h 29.472 l 112.8563,190.13054 h -15.8142 l 111.4186,-190.13054 h 29.472 l 0.3595,251.5905 h -34.5039 l -0.3594,-197.31884 h 8.2665 l -99.1985,166.76857 h -16.5331 l -99.9174,-166.76857 h 8.9854 v 197.31884 z"
         style="vector-effect:none;stop-color:#000000;stop-opacity:1"
         id="path734" />
      <path
         d="m 2083.3422,690.17291 q -28.7532,0 -53.5529,-9.7042 -24.4402,-9.70421 -42.4109,-26.95613 -17.9708,-17.61133 -28.0344,-40.97331 -10.0636,-23.36198 -10.0636,-51.03693 0,-27.67496 10.0636,-51.03693 10.0636,-23.36198 28.0344,-40.6139 17.9707,-17.61133 42.4109,-27.31554 24.4402,-9.7042 53.5529,-9.7042 28.7532,0 52.834,9.7042 24.4402,9.34479 42.4109,26.95613 18.3302,17.25192 28.0344,40.61389 10.0636,23.36198 10.0636,51.39635 0,28.03437 -10.0636,51.39635 -9.7042,23.36197 -28.0344,40.97331 -17.9707,17.25192 -42.4109,26.95612 -24.0808,9.34479 -52.834,9.34479 z m 0,-31.98793 q 20.846,0 38.4574,-7.1883 17.9707,-7.1883 30.9097,-20.12724 13.2983,-13.29836 20.4866,-30.90969 7.5477,-17.61134 7.5477,-38.45741 0,-20.84607 -7.5477,-38.45741 -7.1883,-17.61133 -20.4866,-30.55027 -12.939,-13.29836 -30.9097,-20.48666 -17.6114,-7.1883 -38.4574,-7.1883 -21.2055,0 -39.1763,7.1883 -17.6113,7.1883 -30.9097,20.48666 -13.2983,12.93894 -20.846,30.55027 -7.1883,17.61134 -7.1883,38.45741 0,20.84607 7.1883,38.45741 7.5477,17.61133 20.846,30.90969 13.2984,12.93894 30.9097,20.12724 17.9708,7.1883 39.1763,7.1883 z"
         style="vector-effect:none;stop-color:#000000;stop-opacity:1"
         id="path736" />
      <path
         d="m 2259.8145,687.29759 v -251.5905 h 29.472 l 112.8563,190.13054 h -15.8142 l 111.4186,-190.13054 h 29.4721 l 0.3594,251.5905 h -34.5039 l -0.3594,-197.31884 h 8.2666 l -99.1986,166.76857 h -16.5331 L 2285.333,489.97875 h 8.9853 v 197.31884 z"
         style="vector-effect:none;stop-color:#000000;stop-opacity:1"
         id="path738" />
    </g>
    <path
       d="M 595.30131,690.64798 H 578.90665 V 5.6373306 h 16.39466 z"
       style="font-variation-settings:normal;vector-effect:none;fill:#ffffff;fill-opacity:1;fill-rule:nonzero;stroke:none;stroke-width:1.33333;stroke-linecap:butt;stroke-linejoin:miter;stroke-miterlimit:4;stroke-dasharray:none;stroke-dashoffset:0;stroke-opacity:1;-inkscape-stroke:none;stop-color:#000000;stop-opacity:1"
       id="path154" />
  </g>
  <rect
     style="font-variation-settings:normal;display:none;opacity:1;vector-effect:none;fill:#000000;fill-opacity:1;stroke:none;stroke-width:1.33333;stroke-linecap:butt;stroke-linejoin:miter;stroke-miterlimit:4;stroke-dasharray:none;stroke-dashoffset:0;stroke-opacity:1;-inkscape-stroke:none;stop-color:#000000;stop-opacity:1"
     id="rect1136"
     width="75.590553"
     height="3110.866"
     x="1662.9923"
     y="-1090.7015" />
</svg>
